<svg xmlns="http://www.w3.org/2000/svg" viewBox="23 382 260 260" width="512" height="512" shape-rendering="geometricPrecision">
  <path d="
M 69.957 448.117
C 70.212 438.421 70.059 428.691 70.034 418.988
C 70.018 412.843 69.684 407.221 74.879 402.93
C 78.427 400 82.696 400.268 87.022 400.291
C 94.183 400.329 101.344 400.327 108.505 400.313
C 138.172 400.256 167.839 400.263 197.505 400.278
C 204.838 400.281 212.174 400.248 219.507 400.327
C 224.58 400.382 229.258 400.3 232.846 404.493
C 237.119 409.488 236.204 416.006 236.175 422.11
C 236.117 434.239 236.111 446.369 236.138 458.497
C 236.213 492.831 236.159 527.164 236.15 561.497
C 236.147 572.663 236.151 583.83 236.151 594.997
C 236.151 600.751 236.657 606.727 236.097 612.458
C 235.593 617.624 231.65 622.277 226.716 623.733
C 223.943 624.551 220.853 624.224 217.998 624.227
C 212.831 624.23 207.664 624.237 202.497 624.24
C 171.331 624.255 140.164 624.257 108.998 624.227
C 102.164 624.22 95.331 624.217 88.498 624.226
C 83.168 624.232 78.433 624.643 74.279 620.712
C 69.744 616.422 69.926 610.941 69.875 605.154
C 69.788 595.198 69.833 585.214 69.91 575.265
C 70.097 551.006 70.194 526.704 70.036 502.447
C 69.918 484.368 69.482 466.198 69.957 448.117 Z
M 82.957 520.627
C 82.004 546.209 83.853 571.881 83.062 597.467
C 83.901 597.875 85.333 597.549 86.241 597.541
C 88.828 597.517 91.417 597.544 94.004 597.542
C 103.338 597.535 112.671 597.54 122.005 597.538
C 144.172 597.533 166.34 597.505 188.507 597.553
C 196.34 597.571 204.173 597.575 212.006 597.57
C 215.564 597.567 219.232 597.855 222.778 597.61
C 223.061 595.325 222.783 592.812 222.782 590.504
C 222.778 585.504 222.774 580.504 222.779 575.503
C 222.794 560.336 222.817 545.168 222.83 530.001
C 222.852 504.168 222.788 478.336 222.794 452.503
C 222.796 444.002 222.81 435.501 222.835 426.999
C 222.843 423.982 223.166 420.893 223.055 417.89
C 222.641 417.551 221.293 417.808 220.757 417.82
C 218.507 417.872 216.252 417.849 214.002 417.86
C 205.169 417.902 196.333 417.833 187.5 417.826
C 169.167 417.81 150.833 417.955 132.501 417.861
C 116.146 417.777 99.734 417.454 83.388 417.894
C 82.342 419.746 83.106 423.856 83.11 425.998
C 83.121 432.497 83.09 438.996 83.076 445.495
C 83.04 461.994 83.006 478.496 83.047 494.995
C 83.06 500.661 83.083 506.328 83.063 511.994
C 83.052 514.802 83.362 517.852 82.957 520.627 Z
M 146.927 608.563
C 144.346 616.371 156.335 620.184 158.888 612.462
C 161.421 604.8 149.425 601.009 146.927 608.563 Z
M 150.368 409.139
C 150.533 409.638 150.701 410.075 151.044 410.483
C 153.164 413.009 157.096 409.416 153.963 407.197
C 153.444 406.829 153.054 406.774 152.435 406.825
C 151.357 407.219 150.519 407.961 150.368 409.139 Z"
opacity="1" fill="rgb(51,51,51)" fill-rule="evenodd" />
  <path d="
M 109.937 474.611
C 111.233 466.224 111.261 457.362 111.841 448.889
C 111.996 446.626 112.185 444.363 112.348 442.098
C 112.426 441.005 112.36 439.391 112.902 438.446
C 114.247 438.184 115.779 438.01 117.117 438.379
C 117.93 440.994 117.651 444.233 117.824 446.954
C 118.145 452.021 118.566 457.077 118.87 462.145
C 118.987 464.1 119.114 466.066 119.152 468.025
C 119.173 469.106 119.013 470.369 119.789 471.222
C 120.727 471.967 122.167 472.189 123.313 471.809
C 125.339 469.708 124.728 465.658 124.794 463.007
C 124.938 457.317 125.49 451.651 125.778 445.968
C 125.882 443.9 125.467 440.206 126.698 438.476
C 127.653 438.215 130.067 437.813 130.814 438.603
C 131.33 441.335 131.209 444.184 131.469 446.948
C 132.011 452.699 132.5 458.48 132.783 464.254
C 132.874 466.108 132.437 471.129 134.64 471.841
C 135.51 472.123 136.548 471.938 137.425 471.803
C 139.562 470.726 138.781 465.397 138.829 463.499
C 138.952 458.636 139.38 453.764 139.702 448.912
C 139.933 445.431 139.841 441.859 140.473 438.422
C 141.36 438.231 144.192 437.787 144.795 438.602
C 145.864 448.763 146.665 459.061 147.272 469.261
C 147.588 474.586 148.509 479.995 146.155 485.019
C 144.486 488.582 141.762 491.017 138.63 493.286
C 137.599 494.032 135.325 494.693 134.669 495.702
C 135.602 507.852 135.792 520.077 136.289 532.253
C 136.738 543.261 137.447 554.274 137.762 565.289
C 137.823 567.448 138.108 569.913 137.21 571.936
C 134.976 576.972 128.487 579.223 123.774 576.107
C 119.638 573.374 119.716 569.782 119.796 565.285
C 119.857 561.771 120.083 558.27 120.244 554.76
C 120.827 542.011 121.164 529.23 121.932 516.487
C 122.35 509.555 123.136 502.512 122.878 495.561
C 120.846 493.813 118.174 492.816 116.081 491.058
C 111.171 486.933 109.463 480.795 109.937 474.611 Z"
opacity="1" fill="rgb(253,98,3)" fill-rule="evenodd" />
  <path d="
M 155.443 465.097
C 156.723 459.687 157.405 454.515 159.993 449.471
C 162.484 444.616 167.102 439.374 172.554 437.916
C 179.726 435.998 186.67 441.185 190.254 446.968
C 197.834 459.199 199.691 477.452 190.105 489.224
C 187.833 492.014 184.962 493.625 181.999 495.519
C 181.612 497.778 182.153 500.505 182.218 502.805
C 182.38 508.541 182.741 514.296 183.083 520.019
C 183.942 534.364 184.483 548.829 184.847 563.194
C 184.916 565.919 185.519 569.096 184.545 571.715
C 182.499 577.22 175.271 579.364 170.533 575.817
C 166.962 573.143 167.036 569.576 167.121 565.534
C 167.202 561.694 167.444 557.867 167.612 554.037
C 168.207 540.455 168.736 526.878 169.314 513.295
C 169.482 509.336 169.723 505.387 169.88 501.425
C 169.955 499.525 170.398 497.298 169.923 495.438
C 166.924 493.407 163.853 491.725 161.491 488.883
C 156.198 482.516 154.471 473.153 155.443 465.097 Z"
opacity="1" fill="rgb(254,98,2)" fill-rule="evenodd" />
</svg>
